<svg width="389" height="101" viewBox="0 0 389 101" fill="none" xmlns="http://www.w3.org/2000/svg">
<path d="M35.8211 51.2684C31.7193 55.373 26.7764 57.4226 20.9869 57.4226C15.1974 57.4226 10.2518 55.3703 6.15267 51.2684C2.05089 47.1666 0 42.2177 0 36.4243C0 30.6309 2.05089 25.6847 6.14999 21.5801C10.2491 17.4756 15.1947 15.426 20.9842 15.426C22.0631 15.426 23.1259 15.5062 24.1727 15.6665C27.4093 16.1609 30.3254 13.6437 30.3254 10.3675V9.13564C30.3254 6.17483 32.7234 3.77518 35.6823 3.77518H36.6142C39.5731 3.77518 41.9711 6.17483 41.9711 9.13564V36.427C41.9711 42.2203 39.9202 47.1693 35.8211 51.2711V51.2684ZM14.3749 43.0407C16.1935 44.8632 18.3992 45.7717 20.9869 45.7717C23.5745 45.7717 25.7776 44.8605 27.5989 43.0407C29.4174 41.2209 30.328 39.0137 30.328 36.4243C30.328 33.8349 29.4174 31.6303 27.5989 29.8079C25.7776 27.9881 23.5745 27.0769 20.9869 27.0769C18.3992 27.0769 16.1961 27.9881 14.3749 29.8079C12.5537 31.6303 11.6457 33.8349 11.6457 36.4243C11.6457 39.0137 12.5564 41.2183 14.3749 43.0407Z" fill="#0597A7"/>
<path d="M54.3005 15.426H55.2992C58.2581 15.426 60.6561 17.8257 60.6561 20.7865V52.0674C60.6561 55.0283 58.2581 57.4279 55.2992 57.4279H54.3005C51.3416 57.4279 48.9436 55.0283 48.9436 52.0674V20.7865C48.9436 17.8257 51.3416 15.426 54.3005 15.426ZM51.0826 2.40433C52.1134 1.37285 53.3525 0.857117 54.7999 0.857117C56.2472 0.857117 57.4863 1.37285 58.5171 2.40433C59.5479 3.4358 60.0633 4.67571 60.0633 6.12405C60.0633 7.57239 59.5479 8.8123 58.5171 9.84378C57.4863 10.8752 56.2472 11.391 54.7999 11.391C53.3525 11.391 52.1134 10.8752 51.0826 9.84378C50.0518 8.8123 49.5364 7.57239 49.5364 6.12405C49.5364 4.67571 50.0518 3.4358 51.0826 2.40433Z" fill="#0597A7"/>
<path d="M86.2442 15.4902C90.7171 15.4902 94.7415 16.7408 98.3145 19.242C98.3492 19.266 98.3866 19.2927 98.4213 19.3168C102.683 22.3364 100.547 29.049 95.3263 29.049H93.5398C92.6158 29.049 91.7052 28.8085 90.9014 28.3542C89.4754 27.5445 87.9212 27.141 86.2442 27.141C83.6565 27.141 81.4641 28.0416 79.6669 29.84C77.867 31.641 76.9698 33.8349 76.9698 36.4216C76.9698 39.0083 77.867 41.2156 79.6669 43.038C81.4641 44.8605 83.6565 45.769 86.2442 45.769C88.1962 45.769 89.956 45.2266 91.5209 44.1443C92.4128 43.5271 93.4703 43.201 94.5545 43.201H96.1087C101.148 43.201 103.402 49.5369 99.4895 52.7168C99.1717 52.9733 98.8459 53.2245 98.5094 53.4704C94.891 56.1025 90.7999 57.4199 86.2415 57.4199C80.452 57.4199 75.5197 55.3783 71.4393 51.2979C67.3616 47.2174 65.3214 42.2578 65.3214 36.4216C65.3214 30.5855 67.3616 25.6927 71.4393 21.6095C75.517 17.5291 80.452 15.4875 86.2415 15.4875L86.2442 15.4902Z" fill="#0597A7"/>
<path d="M111.322 21.5802C115.421 17.4756 120.367 15.426 126.156 15.426C131.946 15.426 136.889 17.4783 140.991 21.5802C145.09 25.6847 147.141 30.6309 147.141 36.4243C147.141 42.2177 145.09 47.1666 140.991 51.2685C136.889 55.373 131.946 57.4226 126.156 57.4226C120.367 57.4226 115.421 55.3703 111.322 51.2685C107.22 47.1666 105.172 42.2177 105.172 36.4243C105.172 30.6309 107.223 25.6847 111.322 21.5802ZM132.768 29.8079C130.947 27.9881 128.744 27.0769 126.156 27.0769C123.569 27.0769 121.363 27.9881 119.544 29.8079C117.723 31.6304 116.815 33.8349 116.815 36.4243C116.815 39.0137 117.726 41.1541 119.544 42.9739C121.363 44.7964 123.569 45.7049 126.156 45.7049C128.744 45.7049 130.947 44.7937 132.768 42.9739C134.587 41.1541 135.497 38.9709 135.497 36.4243C135.497 33.8777 134.587 31.6304 132.768 29.8079Z" fill="#0597A7"/>
<path d="M187.336 15.426C191.633 15.426 195.328 16.9733 198.421 20.0677C201.513 23.1621 203.059 26.8604 203.059 31.16V52.0675C203.059 55.0283 200.661 57.4279 197.702 57.4279H196.77C193.812 57.4279 191.414 55.0283 191.414 52.0675V31.16C191.414 30.0644 191.008 29.1078 190.196 28.2954C189.384 27.4831 188.431 27.0769 187.333 27.0769C186.236 27.0769 185.282 27.4831 184.47 28.2954C183.659 29.1078 183.253 30.0618 183.253 31.16V52.0675C183.253 55.0283 180.855 57.4279 177.896 57.4279H176.964C174.005 57.4279 171.607 55.0283 171.607 52.0675V31.16C171.607 30.0644 171.201 29.1078 170.389 28.2954C169.578 27.4831 168.624 27.0769 167.527 27.0769C166.429 27.0769 165.422 27.4831 164.632 28.2954C163.841 29.1078 163.449 30.0618 163.449 31.16V52.0675C163.449 55.0283 161.051 57.4279 158.092 57.4279H157.16C154.201 57.4279 151.803 55.0283 151.803 52.0675V31.16C151.803 26.815 153.339 23.106 156.407 20.0356C159.475 16.9652 163.182 15.4287 167.524 15.4287C170.186 15.4287 172.624 16.0326 174.841 17.2431C176.438 18.1143 178.366 18.125 179.968 17.2592C182.227 16.038 184.681 15.4287 187.325 15.4287L187.336 15.426Z" fill="#0597A7"/>
<path d="M274 74C282.837 74 290 66.6127 290 57.5C290 48.3873 282.837 41 274 41C265.163 41 258 48.3873 258 57.5C258 66.6127 265.163 74 274 74Z" fill="#ABD8DF"/>
<path d="M233 34C241.837 34 249 26.8366 249 18C249 9.16344 241.837 2 233 2C224.163 2 217 9.16344 217 18C217 26.8366 224.163 34 233 34Z" fill="#0597A7"/>
<path d="M289.492 13.0291C288.773 10.1865 287.29 7.655 285.274 5.65984C283.18 3.58959 280.516 2.09322 277.536 1.4228C276.842 1.26727 276.139 1.15196 275.429 1.07955C266.649 0.199965 258.316 6.71641 257.605 15.574C256.938 23.8952 256.23 33.8871 248.553 38.9903C243.808 42.1439 238.088 42.1815 232.611 42.5059C230.035 42.6588 227.616 42.7366 225.196 43.71C223.204 44.5118 221.376 45.7105 219.848 47.2149C216.747 50.264 214.981 54.4957 215 58.8373C215.019 63.4471 216.992 67.6144 220.128 70.5615C223.075 73.3344 227.05 75.0265 231.4 74.9997C235.806 74.9702 240.075 73.1279 243.106 69.9447C244.586 68.3921 245.757 66.5471 246.521 64.5439C247.49 62.0097 247.474 59.2932 247.711 56.6276C248.357 49.3388 250.373 41.1758 256.97 36.9817C259.704 35.244 262.875 34.3912 266.062 33.9541C269.416 33.4955 272.829 33.753 276.158 33.23C285.697 31.7256 291.855 22.3827 289.495 13.0317L289.492 13.0291Z" fill="url(#paint0_linear_9_994)"/>
<defs>
<linearGradient id="paint0_linear_9_994" x1="226.04" y1="20.9483" x2="298.347" y2="67.6907" gradientUnits="userSpaceOnUse">
<stop offset="0.06" stop-color="#0597A7"/>
<stop offset="0.79" stop-color="#ABD8DF"/>
</linearGradient>
</defs>
</svg>
