<svg width="389" height="382" viewBox="0 0 389 382" fill="none" xmlns="http://www.w3.org/2000/svg">
<g clip-path="url(#clip0_9_1004)">
<path d="M223.577 71.8579C223.577 67.2657 223.943 62.7583 224.658 58.3667C224.528 65.2022 224.239 71.7028 223.792 77.8912C223.647 75.898 223.577 73.8841 223.577 71.8579Z" fill="#0597A7"/>
<path d="M318.903 155.23C315.237 155.72 311.493 155.97 307.69 155.97C306.074 155.97 304.471 155.925 302.879 155.836C308.317 155.646 313.676 155.476 318.903 155.23Z" fill="#0597A7"/>
<path d="M305.588 377.185C351.655 377.185 389 339.84 389 293.773C389 247.706 351.655 210.361 305.588 210.361C259.52 210.361 222.175 247.706 222.175 293.773C222.175 339.84 259.52 377.185 305.588 377.185Z" fill="#ABD8DF"/>
<path d="M92.2391 170.27C138.306 170.27 175.651 132.925 175.651 86.8584C175.651 40.7914 138.306 3.44672 92.2391 3.44672C46.1717 3.44672 8.82672 40.7914 8.82672 86.8584C8.82672 132.925 46.1717 170.27 92.2391 170.27Z" fill="#0597A7"/>
<path d="M386.151 62.8575C382.543 48.0989 374.965 34.9365 364.621 24.526C353.885 13.7227 340.169 5.88441 324.812 2.3157C321.233 1.48452 317.603 0.862171 313.949 0.471392C268.651 -4.3875 225.405 29.0996 221.431 74.9696C217.697 118.069 213.71 169.821 173.9 196.004C149.293 212.189 119.765 212.179 91.4782 213.678C78.1813 214.383 65.6783 214.703 53.1526 219.663C42.8372 223.749 33.3674 229.9 25.4215 237.641C9.30641 253.339 0.051692 275.199 1.26676e-06 297.697C-0.0537571 321.582 9.98252 343.24 26.0666 358.621C41.1893 373.084 61.6568 381.998 84.1112 381.998C106.853 381.998 128.954 372.59 144.724 356.202C152.424 348.201 158.521 338.683 162.541 328.331C167.627 315.235 167.635 301.156 168.946 287.345C172.531 249.592 183.221 207.361 217.418 185.852C231.591 176.94 247.992 172.623 264.454 170.475C281.783 168.213 299.393 169.668 316.604 167.059C365.907 159.585 398.011 111.382 386.149 62.8554L386.151 62.8575Z" fill="url(#paint0_linear_9_1004)"/>
</g>
<defs>
<linearGradient id="paint0_linear_9_1004" x1="58.2969" y1="101.793" x2="430.818" y2="345.234" gradientUnits="userSpaceOnUse">
<stop offset="0.06" stop-color="#0597A7"/>
<stop offset="0.79" stop-color="#ABD8DF"/>
</linearGradient>
<clipPath id="clip0_9_1004">
<rect width="389" height="382" fill="white"/>
</clipPath>
</defs>
</svg>
